<?xml version="1.0" encoding="UTF-8"?><svg xmlns="http://www.w3.org/2000/svg" viewBox="0 0 720 400" width="720" height="400" font-family="ui-sans-serif, system-ui, -apple-system, BlinkMacSystemFont, &quot;Segoe UI&quot;, Helvetica, Arial, sans-serif" font-size="12">
  <rect x="0" y="0" width="720" height="400" fill="#ffffff"/>
  <text x="360" y="26" text-anchor="middle" font-size="15" font-weight="600" fill="#1f2328">wireform-arrow IPC stream encode + decode (100k rows)</text>
  <text x="360" y="44" text-anchor="middle" font-size="11" fill="#656d76">lower is better · µs · ghc-9.8.4 on darwin-aarch64, criterion 1.6.5</text>
  <g stroke="#d0d7de" stroke-width="1">
    <line x1="80" y1="320" x2="700" y2="320"/>
    <line x1="80" y1="60" x2="80" y2="320"/>
  </g>
  <g>
    <g/>
    <text x="72" y="324" text-anchor="end" font-size="10" fill="#656d76">0</text>
    <line x1="80" y1="255" x2="700" y2="255" stroke="#d0d7de" stroke-width="1" stroke-dasharray="2 3"/>
    <text x="72" y="259" text-anchor="end" font-size="10" fill="#656d76">12500</text>
    <line x1="80" y1="190" x2="700" y2="190" stroke="#d0d7de" stroke-width="1" stroke-dasharray="2 3"/>
    <text x="72" y="194" text-anchor="end" font-size="10" fill="#656d76">25000</text>
    <line x1="80" y1="125" x2="700" y2="125" stroke="#d0d7de" stroke-width="1" stroke-dasharray="2 3"/>
    <text x="72" y="129" text-anchor="end" font-size="10" fill="#656d76">37500</text>
    <line x1="80" y1="60" x2="700" y2="60" stroke="#d0d7de" stroke-width="1" stroke-dasharray="2 3"/>
    <text x="72" y="64" text-anchor="end" font-size="10" fill="#656d76">50000</text>
  </g>
  <g>
    <rect x="86.9" y="311.8" width="25.6" height="8.2" rx="2" fill="#0969da"/>
    <rect x="114.4" y="319.2" width="25.6" height="0.8" rx="2" fill="#cf222e"/>
    <rect x="155.8" y="311.1" width="25.6" height="8.9" rx="2" fill="#0969da"/>
    <rect x="183.3" y="319.0" width="25.6" height="1.0" rx="2" fill="#cf222e"/>
    <rect x="224.7" y="304.4" width="25.6" height="15.6" rx="2" fill="#0969da"/>
    <rect x="252.2" y="289.0" width="25.6" height="31.0" rx="2" fill="#cf222e"/>
    <rect x="293.6" y="257.5" width="25.6" height="62.5" rx="2" fill="#0969da"/>
    <rect x="321.1" y="284.9" width="25.6" height="35.1" rx="2" fill="#cf222e"/>
    <rect x="362.4" y="239.8" width="25.6" height="80.2" rx="2" fill="#0969da"/>
    <rect x="390" y="275.0" width="25.6" height="45.0" rx="2" fill="#cf222e"/>
    <rect x="431.3" y="121.1" width="25.6" height="198.9" rx="2" fill="#0969da"/>
    <rect x="458.9" y="164.0" width="25.6" height="156.0" rx="2" fill="#cf222e"/>
    <rect x="500.2" y="240.2" width="25.6" height="79.8" rx="2" fill="#0969da"/>
    <rect x="527.8" y="313.7" width="25.6" height="6.3" rx="2" fill="#cf222e"/>
    <rect x="569.1" y="300.2" width="25.6" height="19.8" rx="2" fill="#0969da"/>
    <rect x="596.7" y="314.1" width="25.6" height="5.9" rx="2" fill="#cf222e"/>
    <rect x="638" y="311.5" width="25.6" height="8.5" rx="2" fill="#0969da"/>
    <rect x="665.6" y="318.6" width="25.6" height="1.4" rx="2" fill="#cf222e"/>
  </g>
  <g>
    <text x="99.7" y="307.8" text-anchor="middle" font-size="10" fill="#1f2328">1571</text>
    <text x="127.2" y="315.2" text-anchor="middle" font-size="10" fill="#1f2328">153</text>
    <text x="168.6" y="307.1" text-anchor="middle" font-size="10" fill="#1f2328">1707</text>
    <text x="196.1" y="315.0" text-anchor="middle" font-size="10" fill="#1f2328">189</text>
    <text x="237.4" y="300.4" text-anchor="middle" font-size="10" fill="#1f2328">3007</text>
    <text x="265" y="285.0" text-anchor="middle" font-size="10" fill="#1f2328">5963</text>
    <text x="306.3" y="253.5" text-anchor="middle" font-size="10" fill="#1f2328">12022</text>
    <text x="333.9" y="280.9" text-anchor="middle" font-size="10" fill="#1f2328">6756</text>
    <text x="375.2" y="235.8" text-anchor="middle" font-size="10" fill="#1f2328">15433</text>
    <text x="402.8" y="271.0" text-anchor="middle" font-size="10" fill="#1f2328">8658</text>
    <text x="444.1" y="117.1" text-anchor="middle" font-size="10" fill="#1f2328">38249</text>
    <text x="471.7" y="160.0" text-anchor="middle" font-size="10" fill="#1f2328">29993</text>
    <text x="513" y="236.2" text-anchor="middle" font-size="10" fill="#1f2328">15348</text>
    <text x="540.6" y="309.7" text-anchor="middle" font-size="10" fill="#1f2328">1206</text>
    <text x="581.9" y="296.2" text-anchor="middle" font-size="10" fill="#1f2328">3810</text>
    <text x="609.4" y="310.1" text-anchor="middle" font-size="10" fill="#1f2328">1133</text>
    <text x="650.8" y="307.5" text-anchor="middle" font-size="10" fill="#1f2328">1631</text>
    <text x="678.3" y="314.6" text-anchor="middle" font-size="10" fill="#1f2328">273</text>
  </g>
  <g>
    <text x="114.4" y="338" text-anchor="middle" font-size="11" fill="#1f2328">int64</text>
    <text x="183.3" y="338" text-anchor="middle" font-size="11" fill="#1f2328">double</text>
    <text x="252.2" y="338" text-anchor="middle" font-size="11" fill="#1f2328">nullable int64</text>
    <text x="321.1" y="338" text-anchor="middle" font-size="11" fill="#1f2328">utf8</text>
    <text x="390" y="338" text-anchor="middle" font-size="11" fill="#1f2328">nullable utf8</text>
    <text x="458.9" y="338" text-anchor="middle" font-size="11" fill="#1f2328">mixed 6-col</text>
    <text x="527.8" y="338" text-anchor="middle" font-size="11" fill="#1f2328">list&lt;int32&gt;</text>
    <text x="596.7" y="338" text-anchor="middle" font-size="11" fill="#1f2328">struct&lt;int32,double,bool&gt;</text>
    <text x="665.6" y="338" text-anchor="middle" font-size="11" fill="#1f2328">dictionary&lt;utf8&gt;</text>
  </g>
  <g>
    <g transform="translate(292, 382)">
      <rect x="0" y="-9" width="12" height="12" rx="2" fill="#0969da"/>
      <text x="18" y="1" font-size="11" fill="#1f2328">encode</text>
    </g>
    <g transform="translate(368, 382)">
      <rect x="0" y="-9" width="12" height="12" rx="2" fill="#cf222e"/>
      <text x="18" y="1" font-size="11" fill="#1f2328">decode</text>
    </g>
  </g>
</svg>
