<?xml version="1.0" encoding="UTF-8"?><svg xmlns="http://www.w3.org/2000/svg" viewBox="0 0 720 400" width="720" height="400" font-family="ui-sans-serif, system-ui, -apple-system, BlinkMacSystemFont, &quot;Segoe UI&quot;, Helvetica, Arial, sans-serif" font-size="12">
  <rect x="0" y="0" width="720" height="400" fill="#ffffff"/>
  <text x="360" y="26" text-anchor="middle" font-size="15" font-weight="600" fill="#1f2328">wireform-arrow entry points vs arrow-rs, mixed 6-column table (100k rows)</text>
  <text x="360" y="44" text-anchor="middle" font-size="11" fill="#656d76">lower is better · µs · ghc-9.8.4 on darwin-aarch64, criterion 1.6.5; arrow-rs 58.2.0, rustc 1.98.1, criterion.rs 0.7.0</text>
  <g stroke="#d0d7de" stroke-width="1">
    <line x1="80" y1="320" x2="700" y2="320"/>
    <line x1="80" y1="60" x2="80" y2="320"/>
  </g>
  <g>
    <g/>
    <text x="72" y="324" text-anchor="end" font-size="10" fill="#656d76">0</text>
    <line x1="80" y1="255" x2="700" y2="255" stroke="#d0d7de" stroke-width="1" stroke-dasharray="2 3"/>
    <text x="72" y="259" text-anchor="end" font-size="10" fill="#656d76">1250</text>
    <line x1="80" y1="190" x2="700" y2="190" stroke="#d0d7de" stroke-width="1" stroke-dasharray="2 3"/>
    <text x="72" y="194" text-anchor="end" font-size="10" fill="#656d76">2500</text>
    <line x1="80" y1="125" x2="700" y2="125" stroke="#d0d7de" stroke-width="1" stroke-dasharray="2 3"/>
    <text x="72" y="129" text-anchor="end" font-size="10" fill="#656d76">3750</text>
    <line x1="80" y1="60" x2="700" y2="60" stroke="#d0d7de" stroke-width="1" stroke-dasharray="2 3"/>
    <text x="72" y="64" text-anchor="end" font-size="10" fill="#656d76">5000</text>
  </g>
  <g>
    <rect x="86.2" y="299.6" width="22.8" height="20.4" rx="2" fill="#0969da"/>
    <rect x="111" y="316.8" width="22.8" height="3.2" rx="2" fill="#cf222e"/>
    <rect x="148.2" y="299.6" width="22.8" height="20.4" rx="2" fill="#0969da"/>
    <rect x="173" y="319.9" width="22.8" height="0.1" rx="2" fill="#cf222e"/>
    <rect x="210.2" y="299.6" width="22.8" height="20.4" rx="2" fill="#0969da"/>
    <rect x="235" y="316.8" width="22.8" height="3.2" rx="2" fill="#cf222e"/>
    <rect x="272.2" y="305.6" width="22.8" height="14.4" rx="2" fill="#0969da"/>
    <rect x="297" y="315.0" width="22.8" height="5.0" rx="2" fill="#cf222e"/>
    <rect x="334.2" y="299.4" width="22.8" height="20.6" rx="2" fill="#0969da"/>
    <rect x="359" y="316.7" width="22.8" height="3.3" rx="2" fill="#cf222e"/>
    <rect x="396.2" y="299.4" width="22.8" height="20.6" rx="2" fill="#0969da"/>
    <rect x="421" y="319.8" width="22.8" height="0.2" rx="2" fill="#cf222e"/>
    <rect x="458.2" y="305.6" width="22.8" height="14.4" rx="2" fill="#0969da"/>
    <rect x="483" y="314.9" width="22.8" height="5.1" rx="2" fill="#cf222e"/>
    <rect x="520.2" y="305.6" width="22.8" height="14.4" rx="2" fill="#0969da"/>
    <rect x="545" y="314.9" width="22.8" height="5.1" rx="2" fill="#cf222e"/>
    <rect x="582.2" y="234.5" width="22.8" height="85.5" rx="2" fill="#0969da"/>
    <rect x="607" y="243.5" width="22.8" height="76.5" rx="2" fill="#cf222e"/>
    <rect x="644.2" y="160.1" width="22.8" height="159.9" rx="2" fill="#0969da"/>
    <rect x="669" y="166.9" width="22.8" height="153.1" rx="2" fill="#cf222e"/>
  </g>
  <g>
    <text x="97.6" y="295.6" text-anchor="middle" font-size="10" fill="#1f2328">393</text>
    <text x="122.4" y="312.8" text-anchor="middle" font-size="10" fill="#1f2328">61.5</text>
    <text x="159.6" y="295.6" text-anchor="middle" font-size="10" fill="#1f2328">393</text>
    <text x="184.4" y="315.9" text-anchor="middle" font-size="10" fill="#1f2328">2.07</text>
    <text x="221.6" y="295.6" text-anchor="middle" font-size="10" fill="#1f2328">393</text>
    <text x="246.4" y="312.8" text-anchor="middle" font-size="10" fill="#1f2328">61.2</text>
    <text x="283.6" y="301.6" text-anchor="middle" font-size="10" fill="#1f2328">277</text>
    <text x="308.4" y="311.0" text-anchor="middle" font-size="10" fill="#1f2328">96.8</text>
    <text x="345.6" y="295.4" text-anchor="middle" font-size="10" fill="#1f2328">397</text>
    <text x="370.4" y="312.7" text-anchor="middle" font-size="10" fill="#1f2328">64.2</text>
    <text x="407.6" y="295.4" text-anchor="middle" font-size="10" fill="#1f2328">397</text>
    <text x="432.4" y="315.8" text-anchor="middle" font-size="10" fill="#1f2328">3.69</text>
    <text x="469.6" y="301.6" text-anchor="middle" font-size="10" fill="#1f2328">277</text>
    <text x="494.4" y="310.9" text-anchor="middle" font-size="10" fill="#1f2328">97.4</text>
    <text x="531.6" y="301.6" text-anchor="middle" font-size="10" fill="#1f2328">277</text>
    <text x="556.4" y="310.9" text-anchor="middle" font-size="10" fill="#1f2328">97.8</text>
    <text x="593.6" y="230.5" text-anchor="middle" font-size="10" fill="#1f2328">1645</text>
    <text x="618.4" y="239.5" text-anchor="middle" font-size="10" fill="#1f2328">1470</text>
    <text x="655.6" y="156.1" text-anchor="middle" font-size="10" fill="#1f2328">3076</text>
    <text x="680.4" y="162.9" text-anchor="middle" font-size="10" fill="#1f2328">2944</text>
  </g>
  <g>
    <text x="111" y="338" text-anchor="middle" font-size="11" fill="#1f2328">stream encode (Arrow.Stream)</text>
    <text x="173" y="338" text-anchor="middle" font-size="11" fill="#1f2328">stream encode lazy (Arrow.Stream)</text>
    <text x="235" y="338" text-anchor="middle" font-size="11" fill="#1f2328">stream encode (Arrow.Write)</text>
    <text x="297" y="338" text-anchor="middle" font-size="11" fill="#1f2328">stream decode (Arrow.Stream)</text>
    <text x="359" y="338" text-anchor="middle" font-size="11" fill="#1f2328">file encode (Arrow.Stream)</text>
    <text x="421" y="338" text-anchor="middle" font-size="11" fill="#1f2328">file encode lazy (Arrow.Stream)</text>
    <text x="483" y="338" text-anchor="middle" font-size="11" fill="#1f2328">file decode (Arrow.Stream)</text>
    <text x="545" y="338" text-anchor="middle" font-size="11" fill="#1f2328">file read (Arrow.File)</text>
    <text x="607" y="338" text-anchor="middle" font-size="11" fill="#1f2328">typed encode (Arrow.Record)</text>
    <text x="669" y="338" text-anchor="middle" font-size="11" fill="#1f2328">typed decode (Arrow.Record)</text>
  </g>
  <g>
    <g transform="translate(257, 382)">
      <rect x="0" y="-9" width="12" height="12" rx="2" fill="#0969da"/>
      <text x="18" y="1" font-size="11" fill="#1f2328">arrow-rs</text>
    </g>
    <g transform="translate(347, 382)">
      <rect x="0" y="-9" width="12" height="12" rx="2" fill="#cf222e"/>
      <text x="18" y="1" font-size="11" fill="#1f2328">wireform-arrow</text>
    </g>
  </g>
</svg>
