<?xml version="1.0" encoding="UTF-8"?><svg xmlns="http://www.w3.org/2000/svg" viewBox="0 0 720 400" width="720" height="400" font-family="ui-sans-serif, system-ui, -apple-system, BlinkMacSystemFont, &quot;Segoe UI&quot;, Helvetica, Arial, sans-serif" font-size="12">
  <rect x="0" y="0" width="720" height="400" fill="#ffffff"/>
  <text x="360" y="26" text-anchor="middle" font-size="15" font-weight="600" fill="#1f2328">wireform-arrow vs arrow-rs, IPC stream encode + decode (100-row batch)</text>
  <text x="360" y="44" text-anchor="middle" font-size="11" fill="#656d76">lower is better · µs · ghc-9.8.4 on darwin-aarch64, criterion 1.6.5; arrow-rs 58.2.0, rustc 1.98.1, criterion.rs 0.7.0</text>
  <g stroke="#d0d7de" stroke-width="1">
    <line x1="80" y1="320" x2="700" y2="320"/>
    <line x1="80" y1="60" x2="80" y2="320"/>
  </g>
  <g>
    <g/>
    <text x="72" y="324" text-anchor="end" font-size="10" fill="#656d76">0</text>
    <line x1="80" y1="255" x2="700" y2="255" stroke="#d0d7de" stroke-width="1" stroke-dasharray="2 3"/>
    <text x="72" y="259" text-anchor="end" font-size="10" fill="#656d76">2.50</text>
    <line x1="80" y1="190" x2="700" y2="190" stroke="#d0d7de" stroke-width="1" stroke-dasharray="2 3"/>
    <text x="72" y="194" text-anchor="end" font-size="10" fill="#656d76">5.00</text>
    <line x1="80" y1="125" x2="700" y2="125" stroke="#d0d7de" stroke-width="1" stroke-dasharray="2 3"/>
    <text x="72" y="129" text-anchor="end" font-size="10" fill="#656d76">7.50</text>
    <line x1="80" y1="60" x2="700" y2="60" stroke="#d0d7de" stroke-width="1" stroke-dasharray="2 3"/>
    <text x="72" y="64" text-anchor="end" font-size="10" fill="#656d76">10.0</text>
  </g>
  <g>
    <rect x="81.7" y="293.7" width="4.9" height="26.3" rx="2" fill="#0969da"/>
    <rect x="88.6" y="303.1" width="4.9" height="16.9" rx="2" fill="#cf222e"/>
    <rect x="98.9" y="293.7" width="4.9" height="26.3" rx="2" fill="#0969da"/>
    <rect x="105.8" y="303.1" width="4.9" height="16.9" rx="2" fill="#cf222e"/>
    <rect x="116.2" y="294.3" width="4.9" height="25.7" rx="2" fill="#0969da"/>
    <rect x="123.1" y="302.8" width="4.9" height="17.2" rx="2" fill="#cf222e"/>
    <rect x="133.4" y="291.9" width="4.9" height="28.1" rx="2" fill="#0969da"/>
    <rect x="140.3" y="302.3" width="4.9" height="17.7" rx="2" fill="#cf222e"/>
    <rect x="150.6" y="291.9" width="4.9" height="28.1" rx="2" fill="#0969da"/>
    <rect x="157.5" y="302.6" width="4.9" height="17.4" rx="2" fill="#cf222e"/>
    <rect x="167.8" y="251.1" width="4.9" height="68.9" rx="2" fill="#0969da"/>
    <rect x="174.7" y="263.3" width="4.9" height="56.7" rx="2" fill="#cf222e"/>
    <rect x="185.1" y="282.8" width="4.9" height="37.2" rx="2" fill="#0969da"/>
    <rect x="191.9" y="295.0" width="4.9" height="25.0" rx="2" fill="#cf222e"/>
    <rect x="202.3" y="268.3" width="4.9" height="51.7" rx="2" fill="#0969da"/>
    <rect x="209.2" y="283.3" width="4.9" height="36.7" rx="2" fill="#cf222e"/>
    <rect x="219.5" y="261.5" width="4.9" height="58.5" rx="2" fill="#0969da"/>
    <rect x="226.4" y="290.9" width="4.9" height="29.1" rx="2" fill="#cf222e"/>
    <rect x="236.7" y="293.7" width="4.9" height="26.3" rx="2" fill="#0969da"/>
    <rect x="243.6" y="303.1" width="4.9" height="16.9" rx="2" fill="#cf222e"/>
    <rect x="253.9" y="293.7" width="4.9" height="26.3" rx="2" fill="#0969da"/>
    <rect x="260.8" y="303.6" width="4.9" height="16.4" rx="2" fill="#cf222e"/>
    <rect x="271.2" y="294.3" width="4.9" height="25.7" rx="2" fill="#0969da"/>
    <rect x="278.1" y="302.1" width="4.9" height="17.9" rx="2" fill="#cf222e"/>
    <rect x="288.4" y="291.9" width="4.9" height="28.1" rx="2" fill="#0969da"/>
    <rect x="295.3" y="301.0" width="4.9" height="19.0" rx="2" fill="#cf222e"/>
    <rect x="305.6" y="291.9" width="4.9" height="28.1" rx="2" fill="#0969da"/>
    <rect x="312.5" y="300.5" width="4.9" height="19.5" rx="2" fill="#cf222e"/>
    <rect x="322.8" y="251.1" width="4.9" height="68.9" rx="2" fill="#0969da"/>
    <rect x="329.7" y="263.6" width="4.9" height="56.4" rx="2" fill="#cf222e"/>
    <rect x="340.1" y="282.8" width="4.9" height="37.2" rx="2" fill="#0969da"/>
    <rect x="346.9" y="295.0" width="4.9" height="25.0" rx="2" fill="#cf222e"/>
    <rect x="357.3" y="268.3" width="4.9" height="51.7" rx="2" fill="#0969da"/>
    <rect x="364.2" y="283.1" width="4.9" height="36.9" rx="2" fill="#cf222e"/>
    <rect x="374.5" y="261.5" width="4.9" height="58.5" rx="2" fill="#0969da"/>
    <rect x="381.4" y="289.3" width="4.9" height="30.7" rx="2" fill="#cf222e"/>
    <rect x="391.7" y="303.6" width="4.9" height="16.4" rx="2" fill="#0969da"/>
    <rect x="398.6" y="307" width="4.9" height="13" rx="2" fill="#cf222e"/>
    <rect x="408.9" y="303.6" width="4.9" height="16.4" rx="2" fill="#0969da"/>
    <rect x="415.8" y="307.3" width="4.9" height="12.7" rx="2" fill="#cf222e"/>
    <rect x="426.2" y="302.8" width="4.9" height="17.2" rx="2" fill="#0969da"/>
    <rect x="433.1" y="306.5" width="4.9" height="13.5" rx="2" fill="#cf222e"/>
    <rect x="443.4" y="300.5" width="4.9" height="19.5" rx="2" fill="#0969da"/>
    <rect x="450.3" y="304.4" width="4.9" height="15.6" rx="2" fill="#cf222e"/>
    <rect x="460.6" y="300.0" width="4.9" height="20.0" rx="2" fill="#0969da"/>
    <rect x="467.5" y="304.4" width="4.9" height="15.6" rx="2" fill="#cf222e"/>
    <rect x="477.8" y="261.2" width="4.9" height="58.8" rx="2" fill="#0969da"/>
    <rect x="484.7" y="278.7" width="4.9" height="41.3" rx="2" fill="#cf222e"/>
    <rect x="495.1" y="291.7" width="4.9" height="28.3" rx="2" fill="#0969da"/>
    <rect x="501.9" y="301.3" width="4.9" height="18.7" rx="2" fill="#cf222e"/>
    <rect x="512.3" y="285.7" width="4.9" height="34.3" rx="2" fill="#0969da"/>
    <rect x="519.2" y="291.9" width="4.9" height="28.1" rx="2" fill="#cf222e"/>
    <rect x="529.5" y="284.6" width="4.9" height="35.4" rx="2" fill="#0969da"/>
    <rect x="536.4" y="295.8" width="4.9" height="24.2" rx="2" fill="#cf222e"/>
    <rect x="546.7" y="301.0" width="4.9" height="19.0" rx="2" fill="#0969da"/>
    <rect x="553.6" y="304.7" width="4.9" height="15.3" rx="2" fill="#cf222e"/>
    <rect x="563.9" y="299.7" width="4.9" height="20.3" rx="2" fill="#0969da"/>
    <rect x="570.8" y="304.9" width="4.9" height="15.1" rx="2" fill="#cf222e"/>
    <rect x="581.2" y="299.2" width="4.9" height="20.8" rx="2" fill="#0969da"/>
    <rect x="588.1" y="304.1" width="4.9" height="15.9" rx="2" fill="#cf222e"/>
    <rect x="598.4" y="270.9" width="4.9" height="49.1" rx="2" fill="#0969da"/>
    <rect x="605.3" y="291.9" width="4.9" height="28.1" rx="2" fill="#cf222e"/>
    <rect x="615.6" y="270.3" width="4.9" height="49.7" rx="2" fill="#0969da"/>
    <rect x="622.5" y="292.2" width="4.9" height="27.8" rx="2" fill="#cf222e"/>
    <rect x="632.8" y="188.2" width="4.9" height="131.8" rx="2" fill="#0969da"/>
    <rect x="639.7" y="244.6" width="4.9" height="75.4" rx="2" fill="#cf222e"/>
    <rect x="650.1" y="195.5" width="4.9" height="124.5" rx="2" fill="#0969da"/>
    <rect x="656.9" y="285.9" width="4.9" height="34.1" rx="2" fill="#cf222e"/>
    <rect x="667.3" y="279.2" width="4.9" height="40.8" rx="2" fill="#0969da"/>
    <rect x="674.2" y="284.4" width="4.9" height="35.6" rx="2" fill="#cf222e"/>
    <rect x="684.5" y="253.2" width="4.9" height="66.8" rx="2" fill="#0969da"/>
    <rect x="691.4" y="273.5" width="4.9" height="46.5" rx="2" fill="#cf222e"/>
  </g>
  <g>
    <text x="84.2" y="289.7" text-anchor="middle" font-size="10" fill="#1f2328">1.01</text>
    <text x="91.1" y="299.1" text-anchor="middle" font-size="10" fill="#1f2328">0.650</text>
    <text x="101.4" y="289.7" text-anchor="middle" font-size="10" fill="#1f2328">1.01</text>
    <text x="108.3" y="299.1" text-anchor="middle" font-size="10" fill="#1f2328">0.650</text>
    <text x="118.6" y="290.3" text-anchor="middle" font-size="10" fill="#1f2328">0.990</text>
    <text x="125.5" y="298.8" text-anchor="middle" font-size="10" fill="#1f2328">0.660</text>
    <text x="135.8" y="287.9" text-anchor="middle" font-size="10" fill="#1f2328">1.08</text>
    <text x="142.7" y="298.3" text-anchor="middle" font-size="10" fill="#1f2328">0.680</text>
    <text x="153.1" y="287.9" text-anchor="middle" font-size="10" fill="#1f2328">1.08</text>
    <text x="159.9" y="298.6" text-anchor="middle" font-size="10" fill="#1f2328">0.670</text>
    <text x="170.3" y="247.1" text-anchor="middle" font-size="10" fill="#1f2328">2.65</text>
    <text x="177.2" y="259.3" text-anchor="middle" font-size="10" fill="#1f2328">2.18</text>
    <text x="187.5" y="278.8" text-anchor="middle" font-size="10" fill="#1f2328">1.43</text>
    <text x="194.4" y="291.0" text-anchor="middle" font-size="10" fill="#1f2328">0.960</text>
    <text x="204.7" y="264.3" text-anchor="middle" font-size="10" fill="#1f2328">1.99</text>
    <text x="211.6" y="279.3" text-anchor="middle" font-size="10" fill="#1f2328">1.41</text>
    <text x="221.9" y="257.5" text-anchor="middle" font-size="10" fill="#1f2328">2.25</text>
    <text x="228.8" y="286.9" text-anchor="middle" font-size="10" fill="#1f2328">1.12</text>
    <text x="239.2" y="289.7" text-anchor="middle" font-size="10" fill="#1f2328">1.01</text>
    <text x="246.1" y="299.1" text-anchor="middle" font-size="10" fill="#1f2328">0.650</text>
    <text x="256.4" y="289.7" text-anchor="middle" font-size="10" fill="#1f2328">1.01</text>
    <text x="263.3" y="299.6" text-anchor="middle" font-size="10" fill="#1f2328">0.630</text>
    <text x="273.6" y="290.3" text-anchor="middle" font-size="10" fill="#1f2328">0.990</text>
    <text x="280.5" y="298.1" text-anchor="middle" font-size="10" fill="#1f2328">0.690</text>
    <text x="290.8" y="287.9" text-anchor="middle" font-size="10" fill="#1f2328">1.08</text>
    <text x="297.7" y="297.0" text-anchor="middle" font-size="10" fill="#1f2328">0.730</text>
    <text x="308.1" y="287.9" text-anchor="middle" font-size="10" fill="#1f2328">1.08</text>
    <text x="314.9" y="296.5" text-anchor="middle" font-size="10" fill="#1f2328">0.750</text>
    <text x="325.3" y="247.1" text-anchor="middle" font-size="10" fill="#1f2328">2.65</text>
    <text x="332.2" y="259.6" text-anchor="middle" font-size="10" fill="#1f2328">2.17</text>
    <text x="342.5" y="278.8" text-anchor="middle" font-size="10" fill="#1f2328">1.43</text>
    <text x="349.4" y="291.0" text-anchor="middle" font-size="10" fill="#1f2328">0.960</text>
    <text x="359.7" y="264.3" text-anchor="middle" font-size="10" fill="#1f2328">1.99</text>
    <text x="366.6" y="279.1" text-anchor="middle" font-size="10" fill="#1f2328">1.42</text>
    <text x="376.9" y="257.5" text-anchor="middle" font-size="10" fill="#1f2328">2.25</text>
    <text x="383.8" y="285.3" text-anchor="middle" font-size="10" fill="#1f2328">1.18</text>
    <text x="394.2" y="299.6" text-anchor="middle" font-size="10" fill="#1f2328">0.630</text>
    <text x="401.1" y="303" text-anchor="middle" font-size="10" fill="#1f2328">0.500</text>
    <text x="411.4" y="299.6" text-anchor="middle" font-size="10" fill="#1f2328">0.630</text>
    <text x="418.3" y="303.3" text-anchor="middle" font-size="10" fill="#1f2328">0.490</text>
    <text x="428.6" y="298.8" text-anchor="middle" font-size="10" fill="#1f2328">0.660</text>
    <text x="435.5" y="302.5" text-anchor="middle" font-size="10" fill="#1f2328">0.520</text>
    <text x="445.8" y="296.5" text-anchor="middle" font-size="10" fill="#1f2328">0.750</text>
    <text x="452.7" y="300.4" text-anchor="middle" font-size="10" fill="#1f2328">0.600</text>
    <text x="463.1" y="296.0" text-anchor="middle" font-size="10" fill="#1f2328">0.770</text>
    <text x="469.9" y="300.4" text-anchor="middle" font-size="10" fill="#1f2328">0.600</text>
    <text x="480.3" y="257.2" text-anchor="middle" font-size="10" fill="#1f2328">2.26</text>
    <text x="487.2" y="274.7" text-anchor="middle" font-size="10" fill="#1f2328">1.59</text>
    <text x="497.5" y="287.7" text-anchor="middle" font-size="10" fill="#1f2328">1.09</text>
    <text x="504.4" y="297.3" text-anchor="middle" font-size="10" fill="#1f2328">0.720</text>
    <text x="514.7" y="281.7" text-anchor="middle" font-size="10" fill="#1f2328">1.32</text>
    <text x="521.6" y="287.9" text-anchor="middle" font-size="10" fill="#1f2328">1.08</text>
    <text x="531.9" y="280.6" text-anchor="middle" font-size="10" fill="#1f2328">1.36</text>
    <text x="538.8" y="291.8" text-anchor="middle" font-size="10" fill="#1f2328">0.930</text>
    <text x="549.2" y="297.0" text-anchor="middle" font-size="10" fill="#1f2328">0.730</text>
    <text x="556.1" y="300.7" text-anchor="middle" font-size="10" fill="#1f2328">0.590</text>
    <text x="566.4" y="295.7" text-anchor="middle" font-size="10" fill="#1f2328">0.780</text>
    <text x="573.3" y="300.9" text-anchor="middle" font-size="10" fill="#1f2328">0.580</text>
    <text x="583.6" y="295.2" text-anchor="middle" font-size="10" fill="#1f2328">0.800</text>
    <text x="590.5" y="300.1" text-anchor="middle" font-size="10" fill="#1f2328">0.610</text>
    <text x="600.8" y="266.9" text-anchor="middle" font-size="10" fill="#1f2328">1.89</text>
    <text x="607.7" y="287.9" text-anchor="middle" font-size="10" fill="#1f2328">1.08</text>
    <text x="618.1" y="266.3" text-anchor="middle" font-size="10" fill="#1f2328">1.91</text>
    <text x="624.9" y="288.2" text-anchor="middle" font-size="10" fill="#1f2328">1.07</text>
    <text x="635.3" y="184.2" text-anchor="middle" font-size="10" fill="#1f2328">5.07</text>
    <text x="642.2" y="240.6" text-anchor="middle" font-size="10" fill="#1f2328">2.90</text>
    <text x="652.5" y="191.5" text-anchor="middle" font-size="10" fill="#1f2328">4.79</text>
    <text x="659.4" y="281.9" text-anchor="middle" font-size="10" fill="#1f2328">1.31</text>
    <text x="669.7" y="275.2" text-anchor="middle" font-size="10" fill="#1f2328">1.57</text>
    <text x="676.6" y="280.4" text-anchor="middle" font-size="10" fill="#1f2328">1.37</text>
    <text x="686.9" y="249.2" text-anchor="middle" font-size="10" fill="#1f2328">2.57</text>
    <text x="693.8" y="269.5" text-anchor="middle" font-size="10" fill="#1f2328">1.79</text>
  </g>
  <g>
    <text x="88.6" y="338" text-anchor="middle" font-size="11" fill="#1f2328">encode int64</text>
    <text x="105.8" y="338" text-anchor="middle" font-size="11" fill="#1f2328">encode double</text>
    <text x="123.1" y="338" text-anchor="middle" font-size="11" fill="#1f2328">encode nullable int64</text>
    <text x="140.3" y="338" text-anchor="middle" font-size="11" fill="#1f2328">encode utf8</text>
    <text x="157.5" y="338" text-anchor="middle" font-size="11" fill="#1f2328">encode nullable utf8</text>
    <text x="174.7" y="338" text-anchor="middle" font-size="11" fill="#1f2328">encode mixed 6-col</text>
    <text x="191.9" y="338" text-anchor="middle" font-size="11" fill="#1f2328">encode list&lt;int32&gt;</text>
    <text x="209.2" y="338" text-anchor="middle" font-size="11" fill="#1f2328">encode struct&lt;int32,double,bool&gt;</text>
    <text x="226.4" y="338" text-anchor="middle" font-size="11" fill="#1f2328">encode dictionary&lt;utf8&gt;</text>
    <text x="243.6" y="338" text-anchor="middle" font-size="11" fill="#1f2328">encode lazy int64</text>
    <text x="260.8" y="338" text-anchor="middle" font-size="11" fill="#1f2328">encode lazy double</text>
    <text x="278.1" y="338" text-anchor="middle" font-size="11" fill="#1f2328">encode lazy nullable int64</text>
    <text x="295.3" y="338" text-anchor="middle" font-size="11" fill="#1f2328">encode lazy utf8</text>
    <text x="312.5" y="338" text-anchor="middle" font-size="11" fill="#1f2328">encode lazy nullable utf8</text>
    <text x="329.7" y="338" text-anchor="middle" font-size="11" fill="#1f2328">encode lazy mixed 6-col</text>
    <text x="346.9" y="338" text-anchor="middle" font-size="11" fill="#1f2328">encode lazy list&lt;int32&gt;</text>
    <text x="364.2" y="338" text-anchor="middle" font-size="11" fill="#1f2328">encode lazy struct&lt;int32,double,bool&gt;</text>
    <text x="381.4" y="338" text-anchor="middle" font-size="11" fill="#1f2328">encode lazy dictionary&lt;utf8&gt;</text>
    <text x="398.6" y="338" text-anchor="middle" font-size="11" fill="#1f2328">decode int64</text>
    <text x="415.8" y="338" text-anchor="middle" font-size="11" fill="#1f2328">decode double</text>
    <text x="433.1" y="338" text-anchor="middle" font-size="11" fill="#1f2328">decode nullable int64</text>
    <text x="450.3" y="338" text-anchor="middle" font-size="11" fill="#1f2328">decode utf8</text>
    <text x="467.5" y="338" text-anchor="middle" font-size="11" fill="#1f2328">decode nullable utf8</text>
    <text x="484.7" y="338" text-anchor="middle" font-size="11" fill="#1f2328">decode mixed 6-col</text>
    <text x="501.9" y="338" text-anchor="middle" font-size="11" fill="#1f2328">decode list&lt;int32&gt;</text>
    <text x="519.2" y="338" text-anchor="middle" font-size="11" fill="#1f2328">decode struct&lt;int32,double,bool&gt;</text>
    <text x="536.4" y="338" text-anchor="middle" font-size="11" fill="#1f2328">decode dictionary&lt;utf8&gt;</text>
    <text x="553.6" y="338" text-anchor="middle" font-size="11" fill="#1f2328">decode + toVector int64</text>
    <text x="570.8" y="338" text-anchor="middle" font-size="11" fill="#1f2328">decode + toVector double</text>
    <text x="588.1" y="338" text-anchor="middle" font-size="11" fill="#1f2328">decode + toVector nullable int64</text>
    <text x="605.3" y="338" text-anchor="middle" font-size="11" fill="#1f2328">decode + toVector utf8</text>
    <text x="622.5" y="338" text-anchor="middle" font-size="11" fill="#1f2328">decode + toVector nullable utf8</text>
    <text x="639.7" y="338" text-anchor="middle" font-size="11" fill="#1f2328">decode + toVector mixed 6-col</text>
    <text x="656.9" y="338" text-anchor="middle" font-size="11" fill="#1f2328">decode + toVector list&lt;int32&gt;</text>
    <text x="674.2" y="338" text-anchor="middle" font-size="11" fill="#1f2328">decode + toVector struct&lt;int32,double,bool&gt;</text>
    <text x="691.4" y="338" text-anchor="middle" font-size="11" fill="#1f2328">decode + toVector dictionary&lt;utf8&gt;</text>
  </g>
  <g>
    <g transform="translate(257, 382)">
      <rect x="0" y="-9" width="12" height="12" rx="2" fill="#0969da"/>
      <text x="18" y="1" font-size="11" fill="#1f2328">arrow-rs</text>
    </g>
    <g transform="translate(347, 382)">
      <rect x="0" y="-9" width="12" height="12" rx="2" fill="#cf222e"/>
      <text x="18" y="1" font-size="11" fill="#1f2328">wireform-arrow</text>
    </g>
  </g>
</svg>
